<?xml version="1.0" encoding="UTF-8" standalone="no"?>
<!-- Created with Inkscape (http://www.inkscape.org/) -->

<svg
   width="105mm"
   height="74mm"
   viewBox="0 0 105 74"
   version="1.1"
   id="svg5"
   inkscape:version="1.1 (c68e22c387, 2021-05-23)"
   sodipodi:docname="latte.svg"
   xmlns:inkscape="http://www.inkscape.org/namespaces/inkscape"
   xmlns:sodipodi="http://sodipodi.sourceforge.net/DTD/sodipodi-0.dtd"
   xmlns="http://www.w3.org/2000/svg"
   xmlns:svg="http://www.w3.org/2000/svg">
  <sodipodi:namedview
     id="namedview7"
     pagecolor="#ffffff"
     bordercolor="#666666"
     borderopacity="1.0"
     inkscape:pageshadow="2"
     inkscape:pageopacity="0.0"
     inkscape:pagecheckerboard="0"
     inkscape:document-units="mm"
     showgrid="false"
     inkscape:zoom="1.4823793"
     inkscape:cx="205.7503"
     inkscape:cy="154.14408"
     inkscape:window-width="999"
     inkscape:window-height="697"
     inkscape:window-x="819"
     inkscape:window-y="299"
     inkscape:window-maximized="0"
     inkscape:current-layer="layer1"
     borderlayer="true" />
  <defs
     id="defs2">
    <rect
       x="6.7459116"
       y="8.769685"
       width="168.64779"
       height="153.80678"
       id="rect9343" />
  </defs>
  <g
     inkscape:label="Layer 1"
     inkscape:groupmode="layer"
     id="layer1">
    <text
       xml:space="preserve"
       transform="scale(0.26458333)"
       id="text9341"
       style="font-size:40px;line-height:1.25;font-family:'Edwardian Script ITC';word-spacing:0px;white-space:pre;shape-inside:url(#rect9343);-inkscape-font-specification:'Edwardian Script ITC';font-weight:normal;font-style:normal;font-stretch:normal;font-variant:normal"><tspan
         sodipodi:role="line"
         id="tspan9345"
         style="-inkscape-font-specification:'Edwardian Script ITC';font-family:'Edwardian Script ITC';font-weight:normal;font-style:normal;font-stretch:normal;font-variant:normal">COSMIC
LATTE</tspan></text>
    <rect
       style="fill:#000021;stroke-width:0.264583;fill-opacity:1"
       id="rect19665"
       width="109.05469"
       height="77.64122"
       x="-0.35697117"
       y="-0.53545672" />
    <ellipse
       style="fill:#ffffff;fill-opacity:1;stroke-width:0.264583"
       id="path21523"
       cx="49.886719"
       cy="29.093149"
       rx="19.187199"
       ry="11.780048" />
    <path
       sodipodi:type="star"
       style="fill:#ffff00;fill-opacity:1"
       id="path21547"
       inkscape:flatsided="false"
       sodipodi:sides="5"
       sodipodi:cx="41.824654"
       sodipodi:cy="70.157478"
       sodipodi:r1="16.316183"
       sodipodi:r2="8.1580915"
       sodipodi:arg1="0.51914611"
       sodipodi:arg2="1.1474646"
       inkscape:rounded="0"
       inkscape:randomized="0"
       d="M 55.991068,78.252572 45.176,77.595417 38.503425,86.13206 35.786377,75.643248 l -10.18077,-3.708029 9.135839,-5.825287 0.380515,-10.828331 8.363307,6.888586 10.41594,-2.984248 -3.967031,10.082669 z"
       transform="scale(0.26458333)"
       inkscape:transform-center-x="0.2715463"
       inkscape:transform-center-y="0.14534919" />
    <path
       sodipodi:type="star"
       style="fill:#ffff00;fill-opacity:1"
       id="path21571"
       inkscape:flatsided="false"
       sodipodi:sides="5"
       sodipodi:cx="338.64474"
       sodipodi:cy="44.523018"
       sodipodi:r1="17.277964"
       sodipodi:r2="8.6389818"
       sodipodi:arg1="2.4668517"
       sodipodi:arg2="3.0951702"
       inkscape:rounded="0"
       inkscape:randomized="0"
       d="m 325.15292,55.316476 4.86215,-10.392559 -5.80472,-9.897023 11.3864,1.4127 7.61887,-8.578962 2.17504,11.265656 10.51343,4.594933 -10.04215,5.549859 -1.12121,11.418786 -8.38142,-7.835655 z"
       transform="scale(0.26458333)"
       inkscape:transform-center-x="-0.3737173"
       inkscape:transform-center-y="-0.065555644" />
    <path
       sodipodi:type="star"
       style="fill:#ffff00;fill-opacity:1"
       id="path21573"
       inkscape:flatsided="false"
       sodipodi:sides="5"
       sodipodi:cx="133.56905"
       sodipodi:cy="18.888552"
       sodipodi:r1="12.161365"
       sodipodi:r2="6.0806823"
       sodipodi:arg1="1.5152978"
       sodipodi:arg2="2.1436164"
       inkscape:rounded="0"
       inkscape:randomized="0"
       d="m 134.24364,31.031192 -3.97035,-7.032582 -8.04412,-0.716202 5.46148,-5.949211 -1.80462,-7.8717328 7.34572,3.3557678 6.92881,-4.1487975 -0.92158,8.0231895 6.08686,5.307635 -7.91528,1.602837 z"
       transform="scale(0.26458333)"
       inkscape:transform-center-x="-0.055154631"
       inkscape:transform-center-y="0.25433375" />
    <path
       style="fill:none;stroke:#000000;stroke-width:0.264583px;stroke-linecap:butt;stroke-linejoin:miter;stroke-opacity:1"
       d="m 30.699519,30.699519 c 0.162595,1.431661 -0.537535,3.025944 -0.178485,4.46214 0.135721,0.54288 1.255138,2.38746 1.60637,2.855769 0.288761,0.385014 0.860308,0.990005 1.249399,1.249397 0.0495,0.033 0.151879,-0.05321 0.178486,0 0.05321,0.106429 -0.03763,0.244089 0,0.356973 0.0776,0.232791 0.456694,0.456695 0.535456,0.535456 0.351644,0.351645 0.02666,0.410292 0.178485,0.713944 0.07018,0.140361 0.274912,0.63188 0.35697,0.713941 0.04207,0.04207 0.136417,-0.04207 0.178488,0 0.08414,0.08414 -0.08414,0.272833 0,0.356971 0.120158,0.12016 0.225555,0.09414 0.356971,0.35697 0.05321,0.106429 -0.08414,0.272833 0,0.356973 0.129738,0.129739 0.584202,0.405718 0.713941,0.535456 0.04207,0.04207 -0.02661,0.125272 0,0.178485 0.05362,0.107239 1.537885,1.750613 1.60637,1.784856 0.05322,0.02661 0.136416,-0.04207 0.178485,0 0.04207,0.04207 -0.04207,0.136416 0,0.178485 0.09407,0.09407 0.237982,0.118991 0.356973,0.178488 0.118989,0 0.272831,-0.08414 0.356971,0 0.08414,0.08414 -0.05322,0.250542 0,0.35697 0.100833,0.201666 1.358667,0.644726 1.427885,0.713941 0.277008,0.277009 0.495683,0.694055 0.892426,0.892429 0.106429,0.05321 0.244089,-0.03763 0.356973,0 0.203504,0.06783 0.336286,0.277302 0.535456,0.356971 0.201279,0.08051 1.483958,0.500483 1.60637,0.535456 0.148738,0.0425 0.694111,-0.02833 0.892429,0 0.791086,0.113014 1.550792,0.203068 2.320311,0.356973 0.451972,0.09039 0.995675,-0.144071 1.427885,0 0.466646,0.155549 6.007542,0.67477 6.42548,0.535456 0.650407,-0.216802 0.743255,-0.371629 1.427885,-0.713944 0.212857,-0.106426 0.492982,0.08838 0.713944,0 0.442044,0.09895 0.447871,-0.402421 0.713941,-0.535456 0.547875,-0.273936 1.42716,0.08961 1.96334,-0.178485 0.150514,-0.07525 0.222351,-0.256006 0.356974,-0.356971 0.297219,-0.222916 0.809312,-0.273857 1.070911,-0.535458 0.09407,-0.09407 0.06779,-0.283176 0.178486,-0.356971 0.151727,-0.10115 0.697727,-0.08113 0.892428,-0.178485 0.225769,-0.112884 0.325433,-0.395441 0.535456,-0.535456 0.316873,-0.211248 0.891723,-0.297005 1.2494,-0.535458 0.488325,-0.325549 1.529048,-1.640091 1.96334,-1.784855 0.112885,-0.03763 0.257967,0.066 0.356974,0 0.278437,-0.185624 0.296285,-0.831742 0.535455,-1.070912 0.151683,-0.151686 0.410774,-0.182417 0.535456,-0.356973 0.460187,-0.644261 0.655101,-1.608328 0.892429,-2.320311 0.05321,-0.159642 0.281715,-0.20646 0.356971,-0.356971 0.05321,-0.106428 -0.05321,-0.250544 0,-0.356973 0.09593,-0.191865 0.277304,-0.336285 0.35697,-0.535456 0.15807,-0.395171 0.16768,-1.049303 0.356973,-1.427885 0.08853,-0.177069 0.295344,-0.350578 0.356971,-0.535455 0.03763,-0.112885 -0.05322,-0.250545 0,-0.356974 0.02661,-0.05321 0.136417,0.04207 0.178485,0 0.267729,-0.267726 -0.08924,-1.160155 0.178486,-1.427882 0.508426,-0.508428 0.325297,-0.198604 0.535455,-1.249399 0.04207,-0.210341 -0.0936,-0.52673 0,-0.713944 0.133435,-0.266867 0.566934,-0.294021 0.356974,-0.713941 -0.02661,-0.05322 -0.136417,0.04207 -0.178488,0 -0.24564,-0.245639 0.164602,-1.09868 0,-1.427885 -0.371407,-0.742815 0.01233,0.190807 -0.356971,-0.178485 -0.718868,-0.718868 0.718868,0.361897 0,-0.356971 -0.04207,-0.04207 -0.136416,0.04207 -0.178485,0 -0.08414,-0.08414 0.05321,-0.250544 0,-0.356973 -0.215178,-0.430358 -0.535456,-0.473863 -0.535456,-1.070911"
       id="path21688" />
  </g>
</svg>
